<?xml version="1.0" standalone="no"?>
<!DOCTYPE svg PUBLIC "-//W3C//DTD SVG 20010904//EN"
 "http://www.w3.org/TR/2001/REC-SVG-20010904/DTD/svg10.dtd">
<svg version="1.0" xmlns="http://www.w3.org/2000/svg"
 width="767.000000pt" height="367.000000pt" viewBox="0 0 767.000000 367.000000"
 preserveAspectRatio="xMidYMid meet">
<metadata>
Created by potrace 1.15, written by Peter Selinger 2001-2017
</metadata>
<g transform="translate(0.000000,367.000000) scale(0.100000,-0.100000)"
fill="#000000" stroke="none">
<path d="M0 1835 l0 -1835 3835 0 3835 0 0 1835 0 1835 -3835 0 -3835 0 0
-1835z m7456 263 c-4 -728 -10 -1325 -12 -1327 -2 -2 -43 8 -91 23 -49 15
-148 42 -221 61 -74 19 -137 37 -141 40 -10 6 -335 89 -431 110 -248 54 -260
57 -625 110 -170 25 -405 53 -505 60 -510 33 -628 33 -1145 0 -44 -3 -125 -12
-180 -20 -55 -7 -121 -16 -147 -19 l-47 -6 -3 353 c-2 193 -4 709 -6 1145 l-2
792 1781 0 1782 0 -7 -1322z m-6208 860 c-2 -19 -12 -25 -50 -32 l-48 -8 0
-343 c0 -383 3 -401 67 -467 83 -86 297 -74 354 18 44 71 49 120 49 466 l0
326 -42 7 c-70 11 -76 14 -71 35 5 19 15 20 174 20 l169 0 0 -23 c0 -20 -7
-25 -52 -33 l-53 -9 -5 -345 c-6 -387 -6 -392 -85 -478 -64 -72 -221 -142
-315 -142 -147 0 -301 71 -356 165 -47 80 -54 144 -54 487 l0 317 -43 6 c-55
8 -69 17 -61 38 5 15 29 17 216 17 l209 0 -3 -22z m1586 -5 c-3 -16 -7 -34
-10 -40 -2 -9 -26 -13 -73 -13 -68 0 -69 0 -84 -33 -9 -18 -19 -56 -23 -86 -8
-62 -1 -71 64 -71 36 0 43 -3 40 -17 -2 -14 -18 -20 -65 -27 l-61 -9 -22 -121
c-71 -393 -77 -412 -147 -458 -21 -13 -66 -43 -101 -66 -96 -64 -123 -57 -106
27 6 30 8 31 60 31 63 0 87 18 103 77 18 68 93 504 88 509 -3 3 -27 8 -53 12
l-48 7 28 23 c16 12 41 22 57 22 29 0 32 5 43 70 9 55 46 99 121 146 63 38 77
43 133 43 l62 1 -6 -27z m-584 -225 c88 -45 131 -168 96 -275 -33 -100 -65
-135 -166 -187 -82 -43 -98 -48 -141 -44 -62 6 -123 48 -151 102 -17 33 -20
53 -16 116 4 65 9 83 36 122 41 60 106 117 179 156 69 38 104 40 163 10z
m-715 -902 c28 -7 74 -25 103 -40 l52 -26 0 -121 0 -120 -47 3 -46 3 -23 69
c-28 82 -41 98 -107 131 -96 47 -228 25 -281 -47 -29 -41 -26 -107 8 -158 24
-36 47 -51 211 -130 195 -95 255 -138 300 -214 31 -53 40 -120 25 -189 -9 -46
-21 -66 -72 -122 -65 -70 -118 -103 -246 -149 -124 -44 -233 -33 -373 41 l-67
34 -11 77 c-6 42 -14 99 -17 125 l-7 48 63 -3 63 -3 22 -60 c42 -112 117 -173
227 -182 120 -11 198 48 206 157 3 47 0 66 -19 100 -27 48 -43 59 -218 145
-246 121 -314 192 -315 325 0 74 15 110 69 164 98 98 231 155 365 155 47 1
108 -5 135 -13z m1128 -33 l87 -42 0 -136 0 -136 -46 3 -46 3 -27 75 c-30 86
-68 140 -118 171 -50 31 -169 31 -235 0 -123 -59 -187 -210 -188 -443 -1 -243
78 -421 215 -484 54 -26 134 -32 182 -13 61 23 119 96 168 212 l28 67 45 0 45
0 -7 -52 c-3 -29 -9 -90 -12 -135 l-7 -82 -86 -36 c-224 -94 -384 -100 -542
-19 -108 54 -205 167 -245 286 -26 76 -29 95 -29 218 1 120 4 143 28 213 15
42 38 95 52 116 35 56 153 154 227 190 114 54 190 71 313 68 107 -2 113 -3
198 -44z m1341 -1145 c42 -57 89 -122 106 -145 16 -24 34 -43 39 -43 5 0 23
19 39 43 146 207 178 246 200 247 l22 0 0 -270 0 -270 -25 0 -25 0 0 220 c0
133 -4 220 -10 220 -5 0 -25 -21 -44 -47 -20 -27 -39 -52 -43 -58 -5 -5 -32
-46 -62 -91 l-53 -81 -75 111 c-75 112 -110 156 -124 156 -4 0 -10 -97 -14
-215 -6 -172 -10 -215 -21 -215 -12 0 -14 47 -14 270 0 231 2 270 15 270 8 0
48 -46 89 -102z m1116 40 c29 -35 58 -67 64 -73 22 -19 136 -166 136 -174 0
-4 12 -21 28 -37 15 -16 38 -44 50 -61 13 -18 27 -33 32 -33 4 0 11 99 15 220
7 206 9 220 26 220 18 0 19 -13 19 -270 0 -228 -2 -270 -14 -270 -19 0 -147
151 -270 319 -28 38 -109 121 -118 121 -4 0 -8 -99 -8 -220 l0 -220 -25 0 -25
0 0 270 c0 315 0 314 90 208z m844 -50 c29 -62 57 -124 61 -138 4 -14 34 -83
66 -153 33 -70 59 -130 59 -132 0 -3 -9 -5 -20 -5 -15 0 -28 18 -55 75 l-34
75 -160 0 -159 0 -28 -66 c-24 -56 -46 -84 -68 -84 -13 0 -4 25 48 133 29 61
68 146 85 187 90 212 95 220 127 220 21 0 31 -16 78 -112z m356 -158 c0 -263
0 -270 -20 -270 -20 0 -20 7 -20 270 0 263 0 270 20 270 20 0 20 -7 20 -270z
m538 238 c56 -38 76 -78 68 -142 -4 -39 -13 -57 -42 -87 -20 -21 -49 -39 -63
-41 -14 -2 -27 -10 -29 -18 -1 -9 28 -56 66 -106 90 -119 88 -114 59 -114 -18
0 -36 15 -68 58 -23 31 -63 81 -88 110 l-45 53 -81 -3 -80 -3 -3 -108 -3 -107
-29 0 -30 0 0 271 0 271 163 -4 c159 -3 165 -4 205 -30z m-2067 -109 c59 -13
110 -52 92 -70 -8 -8 -19 -5 -41 11 -38 28 -138 31 -177 6 -63 -41 -85 -121
-58 -210 16 -53 23 -62 63 -84 36 -19 56 -23 97 -19 30 2 61 11 71 20 10 9 29
17 42 17 l23 0 -22 -24 c-82 -88 -227 -68 -295 40 -42 66 -46 129 -12 197 32
67 66 99 119 114 23 6 43 11 44 12 1 1 26 -4 54 -10z"/>
<path d="M2060 2644 c-40 -63 -50 -103 -50 -194 0 -90 20 -136 72 -164 l35
-20 33 24 c42 30 72 98 78 180 8 115 -34 203 -105 216 -30 6 -34 3 -63 -42z"/>
<path d="M5840 617 c-41 -74 -87 -203 -76 -214 4 -5 62 -8 129 -8 l122 0 -2
28 c-2 35 -113 257 -127 257 -6 0 -27 -28 -46 -63z"/>
<path d="M6550 583 l0 -126 108 7 c139 9 154 12 191 48 53 52 51 108 -7 171
-26 27 -27 27 -159 27 l-133 0 0 -127z"/>
</g>
</svg>
