<?xml version="1.0" standalone="no"?>
<!DOCTYPE svg PUBLIC "-//W3C//DTD SVG 20010904//EN"
 "http://www.w3.org/TR/2001/REC-SVG-20010904/DTD/svg10.dtd">
<svg version="1.0" xmlns="http://www.w3.org/2000/svg"
 width="1140.000000pt" height="1140.000000pt" viewBox="0 0 1140.000000 1140.000000"
 preserveAspectRatio="xMidYMid meet">
<metadata>
Created by potrace 1.15, written by Peter Selinger 2001-2017
</metadata>
<g transform="translate(0.000000,1140.000000) scale(0.100000,-0.100000)"
fill="#000000" stroke="none">
<path d="M0 5700 l0 -5700 5700 0 5700 0 0 5700 0 5700 -5700 0 -5700 0 0
-5700z m3895 3598 c8 -8 28 -176 23 -190 -7 -17 -48 -28 -188 -53 -52 -9 -105
-18 -117 -21 l-23 -4 0 -928 c0 -1064 3 -1113 74 -1308 53 -145 165 -274 296
-340 136 -68 329 -91 505 -61 102 18 224 73 293 132 103 89 181 229 230 415
l26 95 3 982 c3 640 1 988 -6 1001 -7 14 -30 21 -93 30 -281 40 -278 39 -278
83 0 30 20 160 26 168 2 2 250 3 551 2 373 -1 549 -5 554 -12 12 -19 19 -182
8 -195 -5 -7 -36 -15 -67 -19 -133 -15 -264 -42 -272 -55 -5 -8 -9 -444 -10
-969 -1 -997 -2 -1024 -44 -1189 -56 -214 -214 -432 -404 -555 -73 -48 -241
-138 -277 -150 -11 -3 -36 -13 -55 -20 -81 -33 -230 -79 -327 -103 -64 -16
-85 -17 -215 -5 -214 18 -275 27 -389 56 -231 58 -399 146 -537 283 -91 91
-149 180 -217 335 -24 54 -61 207 -76 312 -10 67 -13 329 -15 1044 -2 525 -5
960 -8 967 -3 8 -15 14 -27 14 -20 0 -89 11 -255 42 -36 6 -53 14 -56 26 -2 9
1 55 7 102 l10 85 40 5 c44 6 1305 4 1310 -2z m4944 3 c11 -1 12 -13 7 -53 -6
-53 -27 -162 -43 -228 l-9 -35 -217 -3 -217 -2 -34 -53 c-39 -60 -58 -122 -81
-262 -9 -55 -21 -122 -27 -149 -8 -39 -8 -50 3 -57 8 -5 87 -9 177 -9 121 0
164 -3 167 -12 3 -7 -3 -51 -13 -98 l-19 -85 -178 -5 -179 -5 -16 -80 c-10
-44 -22 -109 -28 -145 -6 -36 -21 -119 -32 -185 -12 -66 -25 -142 -30 -170 -5
-27 -16 -93 -25 -145 -9 -52 -22 -131 -30 -175 -36 -195 -45 -246 -60 -340
-26 -155 -45 -225 -75 -287 -75 -151 -190 -260 -468 -444 -114 -75 -219 -145
-234 -155 -23 -16 -46 -19 -143 -19 -92 0 -117 3 -121 14 -3 8 -1 43 5 78 26
158 43 245 54 267 l12 25 173 -3 c141 -2 177 0 196 13 27 17 89 139 106 206 6
25 24 119 41 210 16 91 36 203 45 250 8 47 19 112 24 145 4 33 13 83 19 110 5
28 17 93 26 145 8 52 20 115 25 140 6 25 14 74 20 110 20 135 67 397 73 407
15 24 -24 33 -164 35 l-144 3 3 35 c2 36 20 56 128 146 39 32 45 34 121 34 53
0 84 4 90 13 5 6 15 46 22 87 7 41 19 98 28 125 25 79 91 210 133 264 36 46
125 112 215 160 22 12 47 26 55 31 128 79 253 147 276 152 16 3 310 2 343 -1z
m-1971 -757 c103 -29 146 -47 214 -91 62 -41 178 -156 178 -177 0 -5 6 -17 13
-25 28 -33 67 -145 83 -237 35 -208 -15 -458 -126 -629 -11 -16 -24 -39 -29
-50 -20 -46 -189 -203 -286 -267 -105 -68 -146 -89 -333 -169 -103 -44 -121
-49 -190 -49 -118 0 -271 52 -367 125 -117 88 -195 210 -229 359 -29 125 -15
360 29 484 54 151 113 241 244 373 102 102 232 190 391 265 63 30 135 65 160
78 55 30 162 34 248 10z m-2363 -2799 c188 -25 390 -77 515 -132 84 -37 169
-79 217 -108 l53 -30 0 -380 c0 -283 -3 -384 -12 -393 -17 -17 -318 -17 -340
1 -9 6 -31 59 -48 117 -84 278 -101 321 -143 367 -143 156 -400 250 -609 223
-141 -18 -164 -23 -235 -56 -136 -62 -221 -169 -243 -307 -27 -172 57 -337
228 -450 37 -25 184 -102 327 -172 730 -358 820 -409 964 -554 152 -152 215
-284 242 -504 19 -155 -6 -332 -66 -472 -63 -147 -241 -339 -410 -442 -193
-118 -413 -211 -680 -288 -33 -9 -82 -25 -110 -34 -38 -12 -82 -15 -183 -14
-178 3 -317 30 -532 104 -149 50 -432 203 -445 239 -2 8 -9 53 -14 100 -5 47
-17 135 -25 195 -65 460 -67 477 -54 493 8 9 59 12 212 10 l200 -3 26 -67 c15
-37 29 -71 33 -74 4 -4 7 -14 7 -23 0 -9 7 -29 15 -45 8 -15 15 -36 15 -45 0
-10 7 -26 15 -37 8 -10 15 -28 15 -40 0 -11 4 -24 9 -30 5 -5 14 -26 21 -48 8
-24 36 -63 74 -100 194 -196 438 -290 684 -264 227 24 373 135 449 343 26 72
25 260 -2 330 -86 221 -168 279 -860 610 -77 36 -156 74 -175 83 -19 9 -63 34
-98 55 -34 20 -64 37 -66 37 -3 0 -32 18 -65 40 -230 153 -351 306 -417 525
-14 46 -18 95 -19 215 0 134 3 165 23 227 25 80 67 163 118 234 49 67 180 189
267 248 69 46 284 161 302 161 4 0 21 6 38 14 96 41 205 76 422 135 87 24 214
26 360 6z m3305 0 c115 -19 204 -40 270 -66 30 -11 67 -24 82 -29 41 -13 194
-89 266 -132 34 -21 65 -38 67 -38 3 0 23 -11 45 -25 l40 -25 0 -420 c0 -307
-3 -421 -12 -426 -12 -8 -327 -8 -335 0 -5 5 -53 141 -64 181 -4 17 -18 62
-32 100 -13 39 -32 97 -42 130 -13 41 -41 90 -87 152 -165 221 -281 278 -563
276 -159 0 -226 -13 -345 -64 -259 -111 -448 -398 -526 -799 -52 -270 -58
-777 -13 -1040 44 -252 114 -463 201 -609 21 -34 38 -65 38 -68 0 -23 132
-165 223 -241 45 -37 197 -109 267 -125 92 -23 231 -31 324 -19 127 17 200 59
332 191 113 115 133 145 194 296 18 44 46 108 61 143 16 34 29 68 29 75 0 7 4
17 8 23 5 5 21 42 37 82 15 40 34 77 40 82 8 7 75 9 171 8 l159 -3 -1 -40 c0
-50 -21 -266 -34 -360 -10 -71 -34 -279 -45 -390 -3 -33 -9 -68 -11 -78 -5
-15 -91 -62 -179 -98 -11 -4 -36 -14 -55 -23 -125 -53 -303 -119 -369 -136
-20 -5 -61 -16 -91 -25 -227 -65 -442 -98 -590 -89 -512 28 -933 234 -1219
594 -132 167 -207 319 -284 580 -90 306 -90 850 0 1180 27 101 74 228 109 302
34 69 101 187 113 198 3 3 21 28 40 55 59 86 240 256 357 334 89 59 260 151
359 192 172 71 375 131 590 173 44 9 100 20 125 25 70 14 256 12 350 -4z"/>
<path d="M6514 8302 c-111 -81 -197 -233 -239 -425 -26 -116 -26 -377 -1 -475
42 -167 153 -293 283 -322 27 -7 40 -3 75 22 97 69 171 185 212 333 10 33 22
74 28 90 15 44 22 351 10 410 -31 150 -53 200 -117 273 -44 51 -110 91 -195
118 -9 3 -33 -8 -56 -24z"/>
</g>
</svg>
